<svg width="8" height="4" viewBox="0 0 8 4" fill="none" xmlns="http://www.w3.org/2000/svg">
<path d="M0.648438 0.847656L3.64844 3.84766C3.74219 3.94922 3.85938 4 4 4C4.14062 4 4.25781 3.94922 4.35156 3.84766L7.35156 0.847656C7.45312 0.753906 7.50391 0.640625 7.50391 0.507812C7.50391 0.367188 7.45312 0.246094 7.35156 0.144531C7.25781 0.0507812 7.14062 0.00390625 7 0.00390625C6.85938 0.00390625 6.74219 0.0507812 6.64844 0.144531L4 2.79297L1.35156 0.144531C1.25781 0.0507812 1.14062 0.00390625 1 0.00390625C0.859375 0.00390625 0.742188 0.0507812 0.648438 0.144531C0.546875 0.246094 0.496094 0.367188 0.496094 0.507812C0.496094 0.640625 0.546875 0.753906 0.648438 0.847656Z" fill="#B0AFCC"/>
</svg>
